<?xml version="1.0" encoding="UTF-8" standalone="no"?>
<!-- Created with Inkscape (http://www.inkscape.org/) -->

<svg
   xmlns:dc="http://purl.org/dc/elements/1.1/"
   xmlns:cc="http://creativecommons.org/ns#"
   xmlns:rdf="http://www.w3.org/1999/02/22-rdf-syntax-ns#"
   xmlns:svg="http://www.w3.org/2000/svg"
   xmlns="http://www.w3.org/2000/svg"
   xmlns:sodipodi="http://sodipodi.sourceforge.net/DTD/sodipodi-0.dtd"
   xmlns:inkscape="http://www.inkscape.org/namespaces/inkscape"
   width="164.18611mm"
   height="164.18611mm"
   viewBox="0 0 164.18611 164.18611"
   version="1.1"
   id="svg8"
   sodipodi:docname="chanpongram.svg"
   inkscape:version="0.92.1 r15371">
  <defs
     id="defs2" />
  <sodipodi:namedview
     id="base"
     pagecolor="#ffffff"
     bordercolor="#666666"
     borderopacity="1.0"
     inkscape:pageopacity="0.0"
     inkscape:pageshadow="2"
     inkscape:zoom="1.0004279"
     inkscape:cx="232.82631"
     inkscape:cy="257.29564"
     inkscape:document-units="mm"
     inkscape:current-layer="layer1"
     showgrid="false"
     fit-margin-top="0"
     fit-margin-left="0"
     fit-margin-right="0"
     fit-margin-bottom="0"
     inkscape:window-width="2560"
     inkscape:window-height="1346"
     inkscape:window-x="-11"
     inkscape:window-y="-11"
     inkscape:window-maximized="1" />
  <metadata
     id="metadata5">
    <rdf:RDF>
      <cc:Work
         rdf:about="">
        <dc:format>image/svg+xml</dc:format>
        <dc:type
           rdf:resource="http://purl.org/dc/dcmitype/StillImage" />
        <dc:title></dc:title>
      </cc:Work>
    </rdf:RDF>
  </metadata>
  <g
     inkscape:label="レイヤー 1"
     inkscape:groupmode="layer"
     id="layer1"
     transform="translate(-26.471949,-52.390026)">
    <rect
       style="fill:#ffffff;fill-opacity:1;stroke:#000000;stroke-width:10;stroke-miterlimit:4;stroke-dasharray:none"
       id="rect10"
       width="154.18611"
       height="154.18611"
       x="31.471949"
       y="57.390026"
       ry="23.537846" />
    <path
       style="fill:#ffeeaa;fill-opacity:1;stroke:#000000;stroke-width:37.79527664;stroke-miterlimit:4;stroke-dasharray:none"
       d="M 601.64844 290.24023 L 18.898438 424.31445 L 18.898438 512.68555 C 18.898437 561.97046 58.574462 601.64844 107.85938 601.64844 L 512.68555 601.64844 C 561.97046 601.64844 601.64844 561.97046 601.64844 512.68555 L 601.64844 290.24023 z "
       transform="matrix(0.26458333,0,0,0.26458333,26.471949,52.390026)"
       id="rect4500" />
    <path
       style="fill:#ffeeaa;fill-opacity:1;stroke:#000000;stroke-width:37.79527664;stroke-miterlimit:4;stroke-dasharray:none"
       d="M 317.76953 208.81641 A 212.9089 107.45403 0 0 1 454.79102 234.0332 C 417.75988 218.30083 369.96271 208.81641 317.76953 208.81641 z M 317.76953 208.81641 C 312.7332 208.81641 307.74187 208.91037 302.79297 209.08398 A 212.9089 107.45403 0 0 1 317.76953 208.81641 z M 302.66992 209.08789 C 258.5145 210.64975 218.0755 219.00595 185.42578 232.09961 A 212.9089 107.45403 0 0 1 302.66992 209.08789 z M 185.42188 232.09961 C 179.93363 234.30068 174.66911 236.63869 169.64062 239.09766 A 212.9089 107.45403 0 0 1 185.42188 232.09961 z M 455.06836 234.15039 A 212.9089 107.45403 0 0 1 470.27734 241.30078 C 465.44137 238.79538 460.36615 236.40886 455.06836 234.15039 z M 169.22852 239.29883 C 164.26685 241.73818 159.54129 244.29851 155.06836 246.9707 A 212.9089 107.45403 0 0 1 169.22852 239.29883 z M 470.68164 241.50977 A 212.9089 107.45403 0 0 1 484.51758 249.46094 C 480.1634 246.69653 475.54491 244.04296 470.68164 241.50977 z M 154.81055 247.125 C 123.64687 265.81326 104.86132 289.93184 104.86133 316.26953 A 212.9089 107.45403 0 0 1 154.81055 247.125 z M 104.86133 316.26953 C 104.86131 375.61477 123.2154 530.80023 324.76758 533.67773 C 517.30884 536.42658 530.67773 375.61477 530.67773 316.26953 A 212.9089 107.45403 0 0 1 317.76953 423.72461 A 212.9089 107.45403 0 0 1 104.86133 316.26953 z M 530.67773 316.26953 C 530.67773 313.72646 530.49082 311.20593 530.14648 308.70703 A 212.9089 107.45403 0 0 1 530.67773 316.26953 z M 484.56641 249.49023 A 212.9089 107.45403 0 0 1 530.14062 308.65234 C 527.04814 286.3718 510.49965 265.96702 484.56641 249.49023 z "
       transform="matrix(0.26458333,0,0,0.26458333,26.471949,52.390026)"
       id="ellipse4497" />
    <ellipse
       style="fill:none;fill-opacity:1;stroke:#000000;stroke-width:10;stroke-miterlimit:4;stroke-dasharray:none"
       id="path4487"
       cx="110.54853"
       cy="136.0699"
       rx="56.332146"
       ry="28.430546" />
    <ellipse
       style="fill:none;fill-opacity:1;stroke:#000000;stroke-width:10;stroke-miterlimit:4;stroke-dasharray:none"
       id="path4489"
       cx="162.12021"
       cy="80.531158"
       rx="3.7025824"
       ry="3.0414069" />
    <ellipse
       ry="28.430546"
       rx="56.332146"
       cy="136.0699"
       cx="110.54853"
       id="ellipse4491"
       style="fill:#ffffff;fill-opacity:1;stroke:#000000;stroke-width:10;stroke-miterlimit:4;stroke-dasharray:none" />
    <circle
       style="fill:none;fill-opacity:1;stroke:#000000;stroke-width:10;stroke-miterlimit:4;stroke-dasharray:none"
       id="path4495"
       cx="110.04452"
       cy="136.17722"
       r="16.661619" />
  </g>
</svg>
